<svg xmlns="http://www.w3.org/2000/svg" viewBox="0 0 520 680" fill="none">
  <defs>
    <linearGradient id="anodize" x1="0%" y1="0%" x2="100%" y2="100%">
      <stop offset="0%" stop-color="#242428"/>
      <stop offset="22%" stop-color="#121214"/>
      <stop offset="48%" stop-color="#1e1e22"/>
      <stop offset="72%" stop-color="#0c0c0e"/>
      <stop offset="100%" stop-color="#18181c"/>
    </linearGradient>
    <linearGradient id="anodizeBrush" x1="0%" y1="0%" x2="0%" y2="100%">
      <stop offset="0%" stop-color="#2a2a30"/>
      <stop offset="8%" stop-color="#141416"/>
      <stop offset="16%" stop-color="#222228"/>
      <stop offset="24%" stop-color="#101012"/>
      <stop offset="32%" stop-color="#1c1c20"/>
      <stop offset="100%" stop-color="#0e0e10"/>
    </linearGradient>
    <linearGradient id="anodizeSide" x1="0%" y1="0%" x2="100%" y2="0%">
      <stop offset="0%" stop-color="#060606"/>
      <stop offset="8%" stop-color="#1a1a1e"/>
      <stop offset="22%" stop-color="#3a3a42"/>
      <stop offset="50%" stop-color="#505058"/>
      <stop offset="78%" stop-color="#222228"/>
      <stop offset="92%" stop-color="#101014"/>
      <stop offset="100%" stop-color="#040404"/>
    </linearGradient>
    <linearGradient id="metalHighlight" x1="0%" y1="0%" x2="100%" y2="100%">
      <stop offset="0%" stop-color="#ffffff" stop-opacity="0"/>
      <stop offset="38%" stop-color="#ffffff" stop-opacity="0.22"/>
      <stop offset="48%" stop-color="#ffffff" stop-opacity="0.08"/>
      <stop offset="100%" stop-color="#ffffff" stop-opacity="0"/>
    </linearGradient>
    <linearGradient id="cncGold" x1="0%" y1="0%" x2="100%" y2="100%">
      <stop offset="0%" stop-color="#f0e2c0"/>
      <stop offset="18%" stop-color="#dcc88a"/>
      <stop offset="50%" stop-color="#c9a962"/>
      <stop offset="82%" stop-color="#9a7f45"/>
      <stop offset="100%" stop-color="#6e5c32"/>
    </linearGradient>
    <linearGradient id="cncGoldVert" x1="0%" y1="0%" x2="0%" y2="100%">
      <stop offset="0%" stop-color="#ead9ae"/>
      <stop offset="45%" stop-color="#b8944f"/>
      <stop offset="100%" stop-color="#7a6538"/>
    </linearGradient>
    <linearGradient id="chamferLight" x1="0%" y1="0%" x2="100%" y2="100%">
      <stop offset="0%" stop-color="#ffffff" stop-opacity="0.45"/>
      <stop offset="100%" stop-color="#ffffff" stop-opacity="0"/>
    </linearGradient>
    <linearGradient id="frostGlass" x1="0%" y1="0%" x2="100%" y2="100%">
      <stop offset="0%" stop-color="#ffffff" stop-opacity="0.16"/>
      <stop offset="30%" stop-color="#d8d8dc" stop-opacity="0.07"/>
      <stop offset="70%" stop-color="#a8a8b0" stop-opacity="0.04"/>
      <stop offset="100%" stop-color="#ffffff" stop-opacity="0.02"/>
    </linearGradient>
    <linearGradient id="frostEdge" x1="0%" y1="0%" x2="0%" y2="100%">
      <stop offset="0%" stop-color="#ffffff" stop-opacity="0.32"/>
      <stop offset="12%" stop-color="#ffffff" stop-opacity="0.05"/>
      <stop offset="100%" stop-color="#ffffff" stop-opacity="0"/>
    </linearGradient>
    <linearGradient id="glassReflect" x1="0%" y1="0%" x2="100%" y2="100%">
      <stop offset="0%" stop-color="#ffffff" stop-opacity="0.42"/>
      <stop offset="28%" stop-color="#ffffff" stop-opacity="0.12"/>
      <stop offset="55%" stop-color="#ffffff" stop-opacity="0"/>
      <stop offset="100%" stop-color="#ffffff" stop-opacity="0"/>
    </linearGradient>
    <linearGradient id="keyLight" x1="0%" y1="0%" x2="100%" y2="100%">
      <stop offset="0%" stop-color="#ffffff" stop-opacity="0.2"/>
      <stop offset="35%" stop-color="#ffffff" stop-opacity="0.05"/>
      <stop offset="100%" stop-color="#ffffff" stop-opacity="0"/>
    </linearGradient>
    <linearGradient id="rimLight" x1="100%" y1="0%" x2="0%" y2="100%">
      <stop offset="0%" stop-color="#ffffff" stop-opacity="0.1"/>
      <stop offset="100%" stop-color="#ffffff" stop-opacity="0"/>
    </linearGradient>
    <radialGradient id="groundShadow" cx="50%" cy="50%" r="50%">
      <stop offset="0%" stop-color="#000" stop-opacity="0.72"/>
      <stop offset="45%" stop-color="#000" stop-opacity="0.28"/>
      <stop offset="100%" stop-color="#000" stop-opacity="0"/>
    </radialGradient>
    <radialGradient id="groundCore" cx="50%" cy="50%" r="50%">
      <stop offset="0%" stop-color="#000" stop-opacity="0.85"/>
      <stop offset="100%" stop-color="#000" stop-opacity="0"/>
    </radialGradient>
    <filter id="productShadow" x="-30%" y="-15%" width="160%" height="160%">
      <feDropShadow dx="0" dy="36" stdDeviation="22" flood-color="#000" flood-opacity="0.65"/>
    </filter>
    <clipPath id="bodyShell">
      <rect x="162" y="118" width="196" height="420" rx="18"/>
    </clipPath>
    <clipPath id="glassClip">
      <rect x="182" y="178" width="156" height="248" rx="11"/>
    </clipPath>
  </defs>

  <!-- ground contact shadow -->
  <ellipse cx="260" cy="628" rx="148" ry="26" fill="url(#groundShadow)"/>
  <ellipse cx="260" cy="622" rx="72" ry="10" fill="url(#groundCore)"/>

  <g filter="url(#productShadow)">
    <path d="M148 536 h224 c14 0 26 12 26 26 v6 c0 8-6 14-14 14 H136 c-8 0-14-6-14-14 v-6 c0-14 12-26 26-26z" fill="#0a0a0c"/>
    <path d="M148 536 h224 c14 0 26 12 26 26 v6 c0 8-6 14-14 14 H136 c-8 0-14-6-14-14 v-6 c0-14 12-26 26-26z" fill="url(#anodizeSide)"/>

    <path d="M128 558 h232 c8 0 14 6 14 14 v3 c0 8-6 14-14 14 H128 c-8 0-14-6-14-14 v-3 c0-8 6-14 14-14z" fill="url(#cncGoldVert)"/>
    <path d="M130 560 h228 c7 0 12 5 12 12 v1 c0 7-5 12-12 12 H130 c-7 0-12-5-12-12 v-1 c0-7 5-12 12-12z" fill="#0a0a0c" opacity="0.35"/>

    <rect x="162" y="118" width="196" height="420" rx="18" fill="url(#anodizeBrush)"/>
    <rect x="162" y="118" width="196" height="420" rx="18" fill="url(#anodize)"/>
    <rect x="162" y="118" width="196" height="420" rx="18" fill="url(#keyLight)" clip-path="url(#bodyShell)"/>
    <rect x="162" y="118" width="196" height="200" rx="18" fill="url(#metalHighlight)" clip-path="url(#bodyShell)" opacity="0.85"/>

    <rect x="162" y="118" width="196" height="420" rx="18" stroke="url(#cncGoldVert)" stroke-width="3"/>
    <rect x="166" y="122" width="188" height="412" rx="16" stroke="url(#cncGold)" stroke-width="0.75" opacity="0.65"/>

    <!-- chamfer highlights -->
    <path d="M178 118 h24 l-8 8 H162 c0-4 4-8 8-8h8z" fill="url(#chamferLight)" opacity="0.35"/>
    <path d="M322 118 h24 l8 8 V126 c0-4-4-8-8-8h-16z" fill="url(#chamferLight)" opacity="0.2"/>
    <path d="M162 524 h16 l8-8 v8 c0 4-4 8-8 8h-8v-8z" fill="#fff" opacity="0.04"/>
    <path d="M342 524 h16 l-8-8 v8 c0 4-4 8-8 8h-8v-8z" fill="#000" opacity="0.25"/>

    <path d="M162 136 v384 c0 10 8 18 18 18 h4 c-8-14-10-30-10-48 V136 c0-10-8-18-18-18 h-4 c8 14 10 30 10 48z" fill="#fff" opacity="0.05"/>
    <path d="M358 152 v320 c0 8-6 14-14 14 h-5 c4-10 6-22 6-36 V152 c0-8 6-14 14-14 h5 c-4 10-6 22-6 36z" fill="#000" opacity="0.45"/>

    <rect x="178" y="72" width="164" height="58" rx="12" fill="url(#anodizeSide)"/>
    <rect x="178" y="72" width="164" height="58" rx="12" stroke="url(#cncGoldVert)" stroke-width="2.5"/>
    <rect x="182" y="76" width="156" height="50" rx="10" stroke="url(#cncGold)" stroke-width="0.6" opacity="0.5"/>
    <path d="M182 76 h40 l-6 6 H182 V76z" fill="url(#chamferLight)" opacity="0.3"/>

    <rect x="204" y="108" width="112" height="1.2" rx="0.6" fill="#050505"/>
    <rect x="210" y="111.5" width="100" height="0.8" rx="0.4" fill="#030303" opacity="0.85"/>
    <rect x="216" y="114.2" width="88" height="0.6" rx="0.3" fill="#020202" opacity="0.7"/>

    <rect x="182" y="178" width="156" height="248" rx="11" fill="#0a0a0e"/>
    <rect x="182" y="178" width="156" height="248" rx="11" fill="url(#frostGlass)"/>
    <rect x="182" y="178" width="156" height="248" rx="11" stroke="url(#cncGold)" stroke-width="0.5" stroke-opacity="0.35"/>
    <rect x="182" y="178" width="156" height="88" rx="11" fill="url(#frostEdge)"/>
    <path d="M188 184 L320 280 L318 292 L186 196 Z" fill="url(#glassReflect)" clip-path="url(#glassClip)" opacity="0.75"/>
    <rect x="194" y="190" width="18" height="210" rx="4" fill="#fff" opacity="0.055"/>
    <rect x="194" y="190" width="6" height="210" rx="2" fill="#fff" opacity="0.11"/>

    <rect x="192" y="188" width="136" height="228" rx="9" fill="#08080a" opacity="0.55"/>
    <rect x="192" y="188" width="136" height="228" rx="9" stroke="#ffffff" stroke-width="0.3" stroke-opacity="0.06"/>
    <rect x="182" y="178" width="156" height="248" rx="11" fill="url(#rimLight)" opacity="0.55"/>

    <g opacity="0.55">
      <rect x="208" y="448" width="104" height="0.7" rx="0.35" fill="#1a1a1e"/>
      <rect x="208" y="453" width="104" height="0.7" rx="0.35" fill="#1a1a1e"/>
      <rect x="208" y="458" width="104" height="0.7" rx="0.35" fill="#1a1a1e"/>
      <rect x="208" y="463" width="104" height="0.7" rx="0.35" fill="#1a1a1e"/>
      <rect x="208" y="468" width="104" height="0.7" rx="0.35" fill="#1a1a1e"/>
    </g>

    <circle cx="260" cy="98" r="2.2" fill="#c9a962" opacity="0.55"/>
    <circle cx="260" cy="98" r="0.9" fill="#fff" opacity="0.35"/>
  </g>
</svg>
